<svg t="1770365193172" class="icon" viewBox="0 0 1024 1024" version="1.1" xmlns="http://www.w3.org/2000/svg" p-id="14042" width="48" height="48"><path d="M828.04091326 372.41714643V238.94851554c0-57.20084055-44.23531808-103.7241921-99.14812515-103.72419209h-600.22749445c-54.91280705 0-99.14812516 46.52335156-99.14812336 103.72419209v546.07736585c0 57.20084055 44.23531808 103.7241921 99.14812336 103.72419206h600.22749445c54.91280705 0 99.14812516-46.52335156 99.14812515-103.72419206v-110.58829258l80.84385552 48.81138328c38.13389428 23.64301499 85.41992246-5.33874537 85.41992428-51.86209517V374.70517993c0-45.76067314-47.28602819-74.74243173-85.41992428-51.86209696l-80.84385552 49.57406346z" fill="#DB90F6" p-id="14043"></path><path d="M828.04091326 491.01355616v-133.46862912c0-57.20084055-44.23531808-103.7241921-99.14812515-103.72419209h-600.22749445c-54.91280705 0-99.14812516 46.52335156-99.14812336 103.72419209v427.0996142c0 57.20084055 44.23531808 103.7241921 99.14812336 103.72419392h600.22749445c54.91280705 0 99.14812516-46.52335156 99.14812515-103.72419392v-110.58829253l80.84385552 49.57406346c38.13389428 22.88033657 85.41992246-6.10142379 85.41992428-51.86209694v-178.46662382c0-46.52335156-47.28602819-74.74243173-85.41992428-51.86209694l-80.84385552 49.57406169z" fill="#D186F7" p-id="14044"></path><path d="M828.04091326 608.84728923v-132.70595068c0-57.20084055-44.23531808-103.7241921-99.14812515-103.72419212h-600.22749445c-54.91280705 0-99.14812516 46.52335156-99.14812336 103.72419212v308.88454284c0 57.20084055 44.23531808 103.7241921 99.14812336 103.72419206h600.22749445c54.91280705 0 99.14812516-46.52335156 99.14812515-103.72419206v-110.58829258l80.84385552 49.57406169c38.13389428 22.88033657 85.41992246-6.10142379 85.41992428-51.86209696v-60.25155241c0-46.52335156-47.28602819-74.74243173-85.41992428-51.86209518l-80.84385552 48.81138328z" fill="#C276F6" p-id="14045"></path><path d="M728.89278811 888.59753814h-600.22749445c-54.91280705 0-99.14812516-46.52335156-99.14812336-104.48687052v-190.66947144c0-57.96351895 44.23531808-104.48687052 99.14812336-104.48686872h600.22749445c54.91280705 0 99.14812516 46.52335156 99.14812515 104.48686872v190.66947144c0 57.96351895-44.23531808 104.48687052-99.14812515 104.48687052z m180.29705313-211.49057752c29.05802804-17.69412653 63.53106735-4.80486996 78.09821426 23.0328719-14.4908793 27.68520653-49.04018804 40.65073074-78.09821426 22.95660423l-37.67628832-22.95660423z" fill="#AF64F6" p-id="14046"></path><path d="M128.66529366 888.97887645z m602.51552792 0h-602.51552792c-54.91280705 0-99.14812516-46.52335156-99.14812336-104.48687053v-72.45439826c0-57.96351895 44.23531808-104.48687052 99.14812336-104.48687053h602.51552792c54.91280705 0 99.14812516 46.52335156 99.14812514 104.48687053v72.45439826c0 57.96351895-44.23531808 104.48687052-99.14812514 104.48687053z" fill="#A25BF4" p-id="14047"></path><path d="M179.53590919 381.34047738z m69.40368814 70.16636474a69.78502645 69.78502645 0 1 1 0.83894429-139.57005291 69.78502645 69.78502645 0 0 1-0.76267663 139.57005291zM571.47607334 746.12930865z m0 0H229.79638163a45.76067314 45.76067314 0 0 1-44.99799472-45.76067314c0-24.40569163 20.59230309-44.99799473 44.99799472-44.99799475h341.67969171c24.40569163 0 44.99799473 20.59230309 44.99799472 44.99799475a45.76067314 45.76067314 0 0 1-44.99799472 45.76067314z" fill="#FFFFFF" p-id="14048"></path></svg>